<svg width="512" height="512" viewBox="0 0 512 512" fill="none" xmlns="http://www.w3.org/2000/svg">
<g clip-path="url(#clip0_9035_1181)">
<path d="M384 0H128C57.3075 0 0 57.3075 0 128V384C0 454.692 57.3075 512 128 512H384C454.692 512 512 454.692 512 384V128C512 57.3075 454.692 0 384 0Z" fill="black"/>
<path d="M256 32L464 144V368L256 480L48 368V144L256 32Z" fill="#6366F1"/>
<path d="M256 256C291.346 256 320 227.346 320 192C320 156.654 291.346 128 256 128C220.654 128 192 156.654 192 192C192 227.346 220.654 256 256 256Z" fill="white"/>
<path d="M288 192H224V336H288V192Z" fill="white"/>
</g>
<defs>
<clipPath id="clip0_9035_1181">
<rect width="512" height="512" fill="white"/>
</clipPath>
</defs>
</svg>
